<svg width="36" height="40" viewBox="0 0 36 40" fill="none" xmlns="http://www.w3.org/2000/svg">
    <path d="M20.387 3.82h-.006l-.004-.004.01.004zm-.331-.962c0 .27-.05.532-.135.779a.502.502 0 0 0-.028.087c-.044.152-.194.683-.106 1.246l.066.423h.423c2.607.38 4.477 1.452 5.838 2.892 1.375 1.454 2.253 3.307 2.82 5.26.566 1.954.815 3.984.948 5.77.062.83.1 1.604.132 2.293l.007.155c.035.72.067 1.356.124 1.843.324 2.79 2.384 4.771 3.563 5.702.745.591 1.237 1.438 1.329 2.364.057.604-.076.985-.26 1.238-.19.26-.472.437-.8.553-.329.116-.675.16-.947.175a3.94 3.94 0 0 1-.41 0l-.02-.002h-.003l-.022-.003H2.976l-.023.002H2.95l-.02.002a3.94 3.94 0 0 1-.41 0 3.431 3.431 0 0 1-.947-.174c-.328-.116-.61-.293-.8-.553-.184-.253-.317-.634-.26-1.238v-.001c.086-.923.582-1.77 1.33-2.363 1.179-.93 3.239-2.912 3.562-5.702.057-.485.09-1.118.124-1.835l.008-.165c.033-.683.07-1.449.13-2.27.133-1.778.38-3.798.94-5.744.56-1.947 1.426-3.796 2.784-5.253 1.35-1.449 3.207-2.533 5.797-2.927l.36-.054.059-.359c.094-.575-.061-1.118-.109-1.275l-.005-.015-.005-.014a2.373 2.373 0 0 1-.15-.837 2.358 2.358 0 1 1 4.718 0zM21.955 36.418a4.37 4.37 0 0 1-8.353 0h8.353z" fill="#FFC738" stroke="#000"/>
</svg>
