<svg width="43" height="59" viewBox="0 0 43 59" fill="none" xmlns="http://www.w3.org/2000/svg">
    <path d="M2.918 26.878c.053-.165.106-.336.164-.497 1.292-3.942 4.357-18.998 9.19-17.656 14.097 3.912 15.066 3.352 18.597 5.202 3.854 2.015-2.387 12.972-3.748 20.443-.037.197.053.394.106.585.313 1.26 1.122 2.337 2.663 3.114 1.186.6 2.546 1.27 3.95 2.02-2.695 1.321-9.408 5.787-9.985 17.63-5.86-1.663-11.821-4.383-16.088-6.864.238-.347 2.99-4.44 1.625-9.072-.98-3.326-3.827-6.056-8.465-8.108.508-2.118 1.202-4.382 1.99-6.797z" fill="#3F23E6"/>
    <path d="M23.781 57.605c.117.031.228.068.344.094 7.3 2.01 14.41 2.103 17.417-2.7 4.262-6.807-1.625-11.465-7.29-14.677-.254-.145-.502-.285-.751-.424-2.562 1.362-8.973 5.916-9.72 17.707zM.927 33.67c-.058.239-.116.482-.169.715-1.302 5.746-1.154 10.263 2.26 13.227 1.012.88 2.552 1.937 4.442 3.056.106.063.206.12.312.182.239-.347 2.991-4.44 1.626-9.072-.985-3.326-3.833-6.056-8.47-8.108z" fill="#FDFAF1"/>
    <path fill-rule="evenodd" clip-rule="evenodd" d="M37.508 8.036c-.445-.249-.895-.502-1.376-.694-2.642-1.057-10.858-3.544-17.264-5.393-.026-.006-3.319-.86-3.345-.87-.466-.11-4.14-1.11-6.427-1.078-1.122.015-1.16.17-1.43.28C6.275.834 5.989 2.828 5.91 3.378c-.402 2.771-1.742 7.558-1.959 9.325-.068.575-.518 3.088 2.181 4.082.678.249 3.002.71 3.16.752 2.177.585 18.826 5.092 19.668 5.698 0 0 4.764 2.57 6.633-3.367.047-.156.106-.316.17-.466.312-.715 1.28-2.927 1.788-4.031.16-.321 2.52-5.911-.042-7.336z" fill="#FDFAF1"/>
</svg>
