<svg width="304" height="259" viewBox="0 0 304 259" fill="none" xmlns="http://www.w3.org/2000/svg">
    <g filter="url(#s73ilxerla)">
        <path d="M268.61 6.123H39.39v220.843h229.22V6.123z" fill="#F0DDBE"/>
        <path d="M268.61 27.686H39.39v10.797h229.22V27.686z" fill="#F0DDBE"/>
        <path d="M297 6.123H11v25.55h286V6.123z" fill="#EBD09E"/>
        <path d="M11 6.123c13.406 25.55 84.653 62.539 141.093 0M293.194 6.123c-13.406 25.55-84.653 62.538-141.093 0" stroke="#33B186" stroke-width="12" stroke-miterlimit="22.926" stroke-linecap="round" stroke-linejoin="round"/>
        <path fill-rule="evenodd" clip-rule="evenodd" d="M235.129 150.957v81.357H72.863v-81.357c0-45.284 36.327-81.998 81.133-81.998 44.813 0 81.133 36.714 81.133 81.998z" fill="#EBD09E"/>
        <path fill-rule="evenodd" clip-rule="evenodd" d="M216.269 151.449v75.517H91.723v-75.517c0-34.76 27.88-62.937 62.273-62.937s62.273 28.177 62.273 62.937z" fill="url(#wc1bj5plpb)"/>
        <path d="M127.117 205.834c.565-4.593-1.101-8.584-3.721-8.913-2.621-.33-5.203 3.127-5.768 7.721-.565 4.594 1.101 8.584 3.721 8.914 2.62.329 5.202-3.128 5.768-7.722z" fill="#D2954D"/>
        <path d="m123.835 196.976-2.047 16.643 70.451 8.854 2.048-16.643-70.452-8.854z" fill="#D2954D"/>
        <path fill-rule="evenodd" clip-rule="evenodd" d="M184.607 196.928c-2.623.329-4.286 4.324-3.721 8.921.564 4.597 3.148 8.053 5.771 7.724 2.622-.328 4.285-4.323 3.721-8.92-.565-4.597-3.149-8.053-5.771-7.725z" fill="#8B632F"/>
        <path d="m184.191 196.979-70.452 8.853 2.048 16.643 70.452-8.854-2.048-16.642z" fill="#D2954D"/>
        <path d="M297 224.519H11v25.55h286v-25.55z" fill="url(#avs2jtlxic)"/>
        <g opacity=".2" fill-rule="evenodd" clip-rule="evenodd" fill="#F99331">
            <path d="M251.057 43.26h17.545v15.957h-17.545c-2.081 0-3.79-1.72-3.79-3.83V47.09c0-2.11 1.709-3.83 3.79-3.83zM226.79 62.274h35.097c2.081 0 3.791 1.72 3.791 3.831v8.303c0 2.103-1.71 3.831-3.791 3.831H226.79c-2.089 0-3.791-1.728-3.791-3.831v-8.31c0-2.104 1.702-3.824 3.791-3.824zM251.057 81.288h17.545v15.958h-17.545c-2.081 0-3.79-1.72-3.79-3.831v-8.303c0-2.096 1.709-3.824 3.79-3.824zM39.39 81.288h17.545c2.089 0 3.79 1.72 3.79 3.831v8.303c0 2.103-1.701 3.831-3.79 3.831H39.39V81.288zM251.057 194.825h17.545v15.957h-17.545c-2.081 0-3.79-1.72-3.79-3.831v-8.303c0-2.103 1.709-3.823 3.79-3.823zM144.28 43.26h35.097c2.089 0 3.791 1.72 3.791 3.831v8.303c0 2.103-1.702 3.831-3.791 3.831H144.28c-2.081 0-3.791-1.72-3.791-3.83V47.09c0-2.11 1.702-3.83 3.791-3.83z"/>
        </g>
        <g opacity=".2" fill-rule="evenodd" clip-rule="evenodd" fill="#F99331">
            <path d="M39.39 175.115h17.545c2.089 0 3.79 1.721 3.79 3.831v8.303c0 2.104-1.701 3.831-3.79 3.831H39.39v-15.965zM46.113 61.61H81.21c2.081 0 3.79 1.72 3.79 3.83v8.303c0 2.111-1.701 3.831-3.79 3.831H46.113c-2.081 0-3.79-1.72-3.79-3.83V65.44c.007-2.111 1.709-3.832 3.79-3.832z"/>
        </g>
        <path fill-rule="evenodd" clip-rule="evenodd" d="M164.277 210.79c16.268-1.399 27.818-12.11 28.228-31.195.402-19.084-12.996-17.857-9.948-30.163 3.047-12.314.796-11.368-2.236-6.771-3.249 4.926-.611 16.216-7.922 15.598-7.31-.618-6.095-10.054-2.436-16.215 3.651-6.161 4.061-16.419-1.014-20.726-5.074-4.308-1.624-.618-1.222 4.925.41 5.543-4.061 10.875-8.935 8.827-4.873-2.048-3.048-8.616-2.027-10.672 1.014-2.048-7.712-2.259-11.982 8.209-4.263 10.469-8.324 26.473-3.86 38.169 4.471 11.696-6.499 14.98-10.15 8.827-3.651-6.153.201-20.109-.812-27.7-1.014-7.592-3.651-9.648-3.249-3.081.402 6.568-15.835 25.449-10.962 39.404 4.874 13.948 14.52 25.488 48.527 22.564z" fill="#EDBA44"/>
        <path fill-rule="evenodd" clip-rule="evenodd" d="M162.861 205.247c6.901-1.845 18.883-5.543 20.508-22.165 1.624-16.622-6.088-22.782-5.485-15.394.611 7.388-7.31 8.412-11.17 4.925-3.861-3.487-11.983-10.672-9.546-18.263 2.436-7.592-1.826-6.153-4.263 1.235-2.437 7.389 2.035 9.437-1.825 20.32-3.861 10.875-12.184 20.523-23.146 14.159-6.382-3.698-3.651-21.141-5.887-8.616-2.235 12.517 14.01 29.545 40.814 23.799z" fill="url(#tc1jcah1qd)"/>
        <path fill-rule="evenodd" clip-rule="evenodd" d="M194.269 205.833c2.622.329 4.285 4.324 3.721 8.913-.565 4.597-3.149 8.053-5.771 7.725-2.623-.329-4.286-4.324-3.721-8.921.564-4.589 3.148-8.045 5.771-7.717zM113.731 205.833c-2.622.329-4.285 4.324-3.721 8.913.565 4.597 3.149 8.053 5.771 7.725 2.623-.329 4.286-4.324 3.721-8.921-.572-4.589-3.148-8.045-5.771-7.717z" fill="#8B632F"/>
        <g filter="url(#3ijuhjvcze)">
            <path d="M61.731 36.036c.047-.156.101-.313.147-.47 1.169-3.682 3.938-17.754 8.316-16.496 12.757 3.66 13.63 3.128 16.826 4.855 3.489 1.885-2.159 12.119-3.389 19.1-.03.18.047.368.093.548.279 1.18 1.014 2.181 2.406 2.908 1.075.563 2.305 1.189 3.574 1.884-2.437 1.236-8.51 5.41-9.035 16.474-5.307-1.556-10.699-4.097-14.551-6.411.216-.321 2.7-4.144 1.47-8.475-.89-3.104-3.466-5.66-7.659-7.576.464-1.97 1.09-4.09 1.802-6.341z" fill="#F1B722"/>
            <path d="M80.615 64.745c.108.03.208.062.309.085 6.606 1.877 13.035 1.963 15.758-2.517 3.86-6.356-1.47-10.711-6.599-13.713a51.489 51.489 0 0 1-.68-.399c-2.321 1.274-8.116 5.528-8.788 16.544zM59.937 42.377a27.12 27.12 0 0 0-.155.672c-1.176 5.371-1.044 9.593 2.042 12.36.913.822 2.305 1.815 4.015 2.855l.278.164c.217-.32 2.7-4.144 1.47-8.475-.882-3.104-3.458-5.653-7.65-7.576z" fill="#FDF9F0"/>
            <path fill-rule="evenodd" clip-rule="evenodd" d="M93.03 18.43c-.402-.235-.804-.47-1.245-.65-2.39-.985-9.825-3.315-15.619-5.043-.023-.007-3.001-.805-3.024-.813-.426-.101-3.752-1.032-5.818-1.008-1.013.015-1.052.164-1.291.258-1.261.516-1.517 2.377-1.586 2.893-.364 2.587-1.578 7.06-1.772 8.717-.062.54-.472 2.885 1.973 3.815.61.235 2.715.665 2.862.704 1.965.547 17.034 4.761 17.792 5.324 0 0 4.31 2.4 6.003-3.143.047-.148.093-.297.155-.43a299.65 299.65 0 0 1 1.617-3.768c.131-.297 2.266-5.52-.047-6.857z" fill="#FDF9F0"/>
        </g>
        <g filter="url(#uhru9cdw5f)">
            <path d="M138.145 29.218c.047-.156.101-.313.147-.469 1.169-3.682 3.938-17.755 8.316-16.496 12.757 3.659 13.631 3.127 16.826 4.855 3.489 1.884-2.159 12.118-3.389 19.1-.03.18.047.367.093.547.279 1.18 1.014 2.181 2.406 2.908 1.075.563 2.305 1.189 3.574 1.885-2.437 1.235-8.509 5.41-9.035 16.473-5.307-1.556-10.699-4.097-14.551-6.411.216-.32 2.699-4.144 1.469-8.475-.889-3.104-3.465-5.66-7.658-7.576.464-1.962 1.091-4.081 1.802-6.34z" fill="#E73846"/>
            <path d="M157.029 57.927c.108.031.208.063.309.086 6.606 1.877 13.035 1.962 15.758-2.517 3.86-6.357-1.47-10.711-6.599-13.714-.232-.132-.456-.265-.681-.398-2.32 1.274-8.114 5.527-8.787 16.543zM136.351 35.567c-.054.227-.108.453-.155.672-1.176 5.371-1.044 9.593 2.042 12.361.913.82 2.306 1.814 4.015 2.854l.279.164c.216-.32 2.7-4.144 1.47-8.475-.882-3.112-3.458-5.66-7.651-7.576z" fill="#FDF9F0"/>
            <path fill-rule="evenodd" clip-rule="evenodd" d="M169.444 11.62c-.402-.235-.804-.47-1.245-.65-2.39-.985-9.824-3.314-15.619-5.042-.023-.008-3.001-.806-3.024-.813-.426-.102-3.752-1.032-5.818-1.009-1.013.016-1.052.164-1.291.258-1.261.516-1.517 2.377-1.586 2.893-.364 2.588-1.578 7.06-1.772 8.717-.062.54-.472 2.885 1.973 3.816.611.234 2.715.664 2.862.703 1.965.547 17.034 4.762 17.792 5.324 0 0 4.309 2.4 6.003-3.143.047-.148.093-.297.155-.43a298.68 298.68 0 0 1 1.617-3.768c.131-.305 2.266-5.527-.047-6.857z" fill="#FDF9F0"/>
        </g>
        <g filter="url(#2lqql9x0xg)">
            <path d="M215.797 38.053c.047-.156.101-.313.147-.47 1.168-3.681 3.938-17.754 8.316-16.496 12.757 3.66 13.631 3.128 16.826 4.855 3.488 1.885-2.159 12.119-3.389 19.1-.031.18.047.368.093.548.279 1.18 1.014 2.181 2.406 2.908 1.075.563 2.305 1.189 3.574 1.884-2.437 1.236-8.509 5.41-9.035 16.474-5.307-1.556-10.699-4.097-14.551-6.411.216-.321 2.699-4.144 1.469-8.476-.889-3.103-3.465-5.66-7.658-7.575.464-1.97 1.091-4.09 1.802-6.341z" fill="#5540D7"/>
            <path d="M234.673 66.762c.108.03.209.062.309.086 6.607 1.876 13.035 1.962 15.758-2.518 3.86-6.356-1.47-10.71-6.599-13.713a50.114 50.114 0 0 1-.68-.399c-2.313 1.274-8.115 5.528-8.788 16.544zM213.995 44.394c-.054.226-.108.453-.155.672-1.176 5.371-1.044 9.593 2.042 12.36.913.822 2.306 1.815 4.015 2.854l.279.165c.216-.32 2.7-4.144 1.47-8.475-.875-3.104-3.451-5.653-7.651-7.576z" fill="#FDF9F0"/>
            <path fill-rule="evenodd" clip-rule="evenodd" d="M247.089 20.446c-.402-.234-.805-.469-1.246-.649-2.39-.985-9.824-3.315-15.618-5.043-.023-.007-3.002-.805-3.025-.813-.425-.101-3.752-1.032-5.817-1.008-1.014.015-1.052.164-1.292.258-1.261.516-1.516 2.377-1.586 2.893-.364 2.587-1.578 7.06-1.771 8.717-.062.54-.472 2.885 1.972 3.815.611.235 2.715.665 2.862.704 1.965.547 17.035 4.761 17.793 5.324 0 0 4.309 2.4 6.003-3.143a3.59 3.59 0 0 1 .154-.43c.279-.664 1.161-2.736 1.617-3.768.139-.305 2.274-5.528-.046-6.857z" fill="#FDF9F0"/>
        </g>
    </g>
    <defs>
        <filter id="s73ilxerla" x=".999" y=".122" width="302.196" height="257.947" filterUnits="userSpaceOnUse" color-interpolation-filters="sRGB">
            <feFlood flood-opacity="0" result="BackgroundImageFix"/>
            <feColorMatrix in="SourceAlpha" values="0 0 0 0 0 0 0 0 0 0 0 0 0 0 0 0 0 0 127 0" result="hardAlpha"/>
            <feOffset dy="4"/>
            <feGaussianBlur stdDeviation="2"/>
            <feComposite in2="hardAlpha" operator="out"/>
            <feColorMatrix values="0 0 0 0 0 0 0 0 0 0 0 0 0 0 0 0 0 0 0.25 0"/>
            <feBlend in2="BackgroundImageFix" result="effect1_dropShadow_182_661"/>
            <feBlend in="SourceGraphic" in2="effect1_dropShadow_182_661" result="shape"/>
        </filter>
        <filter id="3ijuhjvcze" x="55.097" y="10.915" width="46.906" height="63.13" filterUnits="userSpaceOnUse" color-interpolation-filters="sRGB">
            <feFlood flood-opacity="0" result="BackgroundImageFix"/>
            <feColorMatrix in="SourceAlpha" values="0 0 0 0 0 0 0 0 0 0 0 0 0 0 0 0 0 0 127 0" result="hardAlpha"/>
            <feOffset dy="4"/>
            <feGaussianBlur stdDeviation="2"/>
            <feComposite in2="hardAlpha" operator="out"/>
            <feColorMatrix values="0 0 0 0 0 0 0 0 0 0 0 0 0 0 0 0 0 0 0.25 0"/>
            <feBlend in2="BackgroundImageFix" result="effect1_dropShadow_182_661"/>
            <feBlend in="SourceGraphic" in2="effect1_dropShadow_182_661" result="shape"/>
        </filter>
        <filter id="uhru9cdw5f" x="131.511" y="4.106" width="46.906" height="63.122" filterUnits="userSpaceOnUse" color-interpolation-filters="sRGB">
            <feFlood flood-opacity="0" result="BackgroundImageFix"/>
            <feColorMatrix in="SourceAlpha" values="0 0 0 0 0 0 0 0 0 0 0 0 0 0 0 0 0 0 127 0" result="hardAlpha"/>
            <feOffset dy="4"/>
            <feGaussianBlur stdDeviation="2"/>
            <feComposite in2="hardAlpha" operator="out"/>
            <feColorMatrix values="0 0 0 0 0 0 0 0 0 0 0 0 0 0 0 0 0 0 0.25 0"/>
            <feBlend in2="BackgroundImageFix" result="effect1_dropShadow_182_661"/>
            <feBlend in="SourceGraphic" in2="effect1_dropShadow_182_661" result="shape"/>
        </filter>
        <filter id="2lqql9x0xg" x="209.155" y="12.932" width="46.906" height="63.13" filterUnits="userSpaceOnUse" color-interpolation-filters="sRGB">
            <feFlood flood-opacity="0" result="BackgroundImageFix"/>
            <feColorMatrix in="SourceAlpha" values="0 0 0 0 0 0 0 0 0 0 0 0 0 0 0 0 0 0 127 0" result="hardAlpha"/>
            <feOffset dy="4"/>
            <feGaussianBlur stdDeviation="2"/>
            <feComposite in2="hardAlpha" operator="out"/>
            <feColorMatrix values="0 0 0 0 0 0 0 0 0 0 0 0 0 0 0 0 0 0 0.25 0"/>
            <feBlend in2="BackgroundImageFix" result="effect1_dropShadow_182_661"/>
            <feBlend in="SourceGraphic" in2="effect1_dropShadow_182_661" result="shape"/>
        </filter>
        <linearGradient id="wc1bj5plpb" x1="153.996" y1="88.512" x2="153.996" y2="226.966" gradientUnits="userSpaceOnUse">
            <stop stop-color="#6B3B28"/>
            <stop offset="1"/>
        </linearGradient>
        <linearGradient id="avs2jtlxic" x1="154" y1="224.519" x2="154" y2="250.069" gradientUnits="userSpaceOnUse">
            <stop stop-color="#FFE6B6"/>
            <stop offset="1" stop-color="#F2C161"/>
        </linearGradient>
        <linearGradient id="tc1jcah1qd" x1="152.718" y1="149.306" x2="152.718" y2="206.397" gradientUnits="userSpaceOnUse">
            <stop stop-color="#FF6814"/>
            <stop offset="1" stop-color="#F18141" stop-opacity=".18"/>
        </linearGradient>
    </defs>
</svg>
