<svg width="205" height="205" viewBox="0 0 205 205" fill="none" xmlns="http://www.w3.org/2000/svg">
    <path fill-rule="evenodd" clip-rule="evenodd" d="M204.877 102.438v101.638H0V102.438C0 45.867 45.867 0 102.438 0c56.582 0 102.439 45.867 102.439 102.438z" fill="#EBD09E"/>
    <path fill-rule="evenodd" clip-rule="evenodd" d="M181.064 103.054v94.341H23.812v-94.341c0-43.425 35.201-78.626 78.626-78.626 43.425 0 78.626 35.2 78.626 78.626z" fill="#3D241A"/>
    <path d="m64.357 159.929-2.585 20.792 88.952 11.061 2.585-20.792-88.952-11.061z" fill="#D2954D"/>
    <path d="M140.562 159.932 51.61 170.993l2.585 20.791 88.953-11.061-2.586-20.791z" fill="#D2954D"/>
    <path fill-rule="evenodd" clip-rule="evenodd" d="M141.087 159.869c-3.311.411-5.411 5.402-4.698 11.145.713 5.743 3.975 10.06 7.286 9.65 3.311-.41 5.411-5.401 4.698-11.145-.713-5.743-3.975-10.06-7.286-9.65z" fill="#8B632F"/>
    <path fill-rule="evenodd" clip-rule="evenodd" d="M115.419 177.186c20.54-1.748 35.122-15.129 35.64-38.971.508-23.841-16.409-22.308-12.56-37.681 3.848-15.384 1.006-14.202-2.823-8.459-4.102 6.153-.772 20.257-10.002 19.486-9.23-.772-7.696-12.56-3.076-20.257 4.61-7.697 5.127-20.512-1.28-25.893-6.407-5.382-2.051-.772-1.543 6.153.517 6.925-5.128 13.586-11.281 11.027-6.154-2.559-3.849-10.763-2.559-13.332 1.279-2.559-9.738-2.823-15.13 10.256-5.381 13.078-10.51 33.071-4.874 47.683 5.646 14.612-8.204 18.714-12.814 11.027-4.61-7.687.254-25.121-1.026-34.605-1.28-9.484-4.61-12.053-4.102-3.848.508 8.204-19.993 31.792-13.84 49.226 6.153 17.425 18.333 31.841 61.27 28.188z" fill="#EDBA44"/>
    <path fill-rule="evenodd" clip-rule="evenodd" d="M114.784 170.575c8.664-2.305 23.71-6.923 25.75-27.682 2.04-20.758-7.644-28.452-6.887-19.225.768 9.227-9.179 10.506-14.026 6.151-4.847-4.354-15.046-13.328-11.986-22.809 3.059-9.48-2.293-7.684-5.353 1.543-3.06 9.227 2.555 11.785-2.292 25.377-4.847 13.582-15.299 25.631-29.063 17.683-8.013-4.619-4.584-26.402-7.392-10.76-2.807 15.632 17.592 36.898 51.249 29.722z" fill="url(#ckc7qxr9ja)" fill-opacity=".8"/>
    <path fill-rule="evenodd" clip-rule="evenodd" d="M153.286 170.994c3.311.41 5.411 5.401 4.698 11.135-.713 5.743-3.975 10.06-7.286 9.65-3.311-.411-5.411-5.402-4.698-11.145.713-5.733 3.975-10.05 7.286-9.64zM51.6 170.994c-3.311.41-5.411 5.401-4.698 11.135.713 5.743 3.975 10.06 7.286 9.65 3.311-.411 5.411-5.402 4.698-11.145-.723-5.733-3.975-10.05-7.286-9.64z" fill="#8B632F"/>
    <defs>
        <linearGradient id="ckc7qxr9ja" x1="102.048" y1="100.711" x2="102.048" y2="172.01" gradientUnits="userSpaceOnUse">
            <stop stop-color="#F18141"/>
            <stop offset=".628" stop-color="#F18141"/>
            <stop offset="1" stop-color="#F18141" stop-opacity="0"/>
        </linearGradient>
    </defs>
</svg>
