<svg width="390" height="412" viewBox="0 0 390 412" fill="none" xmlns="http://www.w3.org/2000/svg" xmlns:xlink="http://www.w3.org/2000/xlink">
    <path d="M391.757 16.566H-.916v356.145h392.673V15.566z" fill="#F0DDBE"/>
    <path d="M441 0H-50v40h491V0z" fill="#EBD09E"/>
    <path d="M393 372H-1v40h394v-40z" fill="url(#x29m9ktima)"/>
    <g opacity=".2" fill-rule="evenodd" clip-rule="evenodd" fill="#CF7047">
        <path d="M362.126 59.244h30.121V86.35h-30.121c-3.573 0-6.508-2.922-6.508-6.508v-14.09c0-3.586 2.935-6.508 6.508-6.508zM320.465 91.542h60.254c3.573 0 6.508 2.922 6.508 6.508v14.104c0 3.572-2.935 6.507-6.508 6.507h-60.254c-3.586 0-6.508-2.935-6.508-6.507V98.037c0-3.573 2.922-6.495 6.508-6.495zM362.126 123.841h30.121v27.106h-30.121c-3.573 0-6.508-2.922-6.508-6.507v-14.105c0-3.559 2.935-6.494 6.508-6.494zM-1.26 123.841h30.12c3.586 0 6.508 2.922 6.508 6.508v14.104c0 3.572-2.922 6.507-6.507 6.507H-1.26v-27.119zM362.126 316.703h30.121v27.106h-30.121c-3.573 0-6.508-2.922-6.508-6.507v-14.105c0-3.572 2.935-6.494 6.508-6.494zM178.813 59.244h60.254c3.586 0 6.508 2.922 6.508 6.507v14.104c0 3.573-2.922 6.508-6.508 6.508h-60.254c-3.573 0-6.508-2.922-6.508-6.508V65.751c0-3.585 2.922-6.507 6.508-6.507z"/>
    </g>
    <g opacity=".2" fill-rule="evenodd" clip-rule="evenodd" fill="#CF7047">
        <path d="M-1.26 283.222h30.12c3.586 0 6.508 2.922 6.508 6.508v14.104c0 3.572-2.922 6.507-6.507 6.507H-1.26v-27.119zM10.281 90.413h60.254c3.573 0 6.508 2.922 6.508 6.508v14.104c0 3.586-2.922 6.508-6.508 6.508H10.281c-3.573 0-6.508-2.922-6.508-6.508V96.921c.014-3.586 2.935-6.508 6.508-6.508z"/>
    </g>
    <defs>
        <linearGradient id="x29m9ktima" x1="196" y1="372" x2="196" y2="412" gradientUnits="userSpaceOnUse">
            <stop stop-color="#EBD19E"/>
            <stop offset="1" stop-color="#EEB341"/>
        </linearGradient>
    </defs>
</svg>
