<svg width="40" height="49" viewBox="0 0 40 49" fill="none" xmlns="http://www.w3.org/2000/svg">
    <g filter="url(#7ubbvbs8ta)" fill="#fff" stroke="#000" stroke-width=".2" stroke-miterlimit="10">
        <path d="M21.46 39.822c.079.016.157.034.237.048 5.046 1.032 9.866.748 11.662-2.723 2.546-4.92-1.678-7.853-5.675-9.8-.179-.086-.355-.173-.533-.255-1.668 1.065-5.78 4.53-5.692 12.73zM4.778 24.38l-.08.505c-.595 4.04-.266 7.16 2.194 9.044.73.56 1.825 1.215 3.162 1.896l.22.109c.146-.25 1.8-3.218.644-6.357-.828-2.254-2.894-4.005-6.14-5.198z"/>
        <path fill-rule="evenodd" clip-rule="evenodd" d="M27.39 27.201c-.988-.449-1.944-.846-2.777-1.202-1.083-.463-1.686-1.168-1.961-2.025-.043-.133-.114-.263-.1-.4.235-2.266 1.057-5.03 1.694-7.534-.583-.063-1.002-.256-1.002-.256-.603-.377-12.105-2.677-13.608-2.978-.11-.022-1.707-.224-2.178-.363-.05-.015-.092-.034-.14-.05-.701 2.694-1.14 5.566-1.447 6.835l-.087.354c-.413 1.71-.766 3.312-1.005 4.797 3.245 1.193 5.312 2.942 6.142 5.196 1.155 3.139-.5 6.106-.645 6.357 3.012 1.507 7.186 3.097 11.24 3.958-.205-8.221 4.116-11.642 5.874-12.689z"/>
        <path fill-rule="evenodd" clip-rule="evenodd" d="M28.264 4.95c-.314-.149-.631-.304-.966-.414-1.843-.6-7.534-1.92-11.963-2.885-.018-.004-2.291-.434-2.31-.436-.324-.05-2.862-.562-4.406-.429-.76.066-.777.176-.954.264-.916.45-1.006 1.845-1.033 2.231-.133 1.936-.8 5.318-.856 6.551-.018.401-.196 2.163 1.683 2.718.471.14 2.069.341 2.178.364 1.502.298 13.005 2.6 13.608 2.977 0 0 3.357 1.546 4.322-2.657.024-.11.055-.222.092-.33.174-.51.72-2.09 1.008-2.878.085-.233 1.403-4.216-.403-5.076z"/>
    </g>
    <defs>
        <filter id="7ubbvbs8ta" x="-4" y="0" width="47.874" height="50.158" filterUnits="userSpaceOnUse" color-interpolation-filters="sRGB">
            <feFlood flood-opacity="0" result="BackgroundImageFix"/>
            <feColorMatrix in="SourceAlpha" values="0 0 0 0 0 0 0 0 0 0 0 0 0 0 0 0 0 0 127 0" result="hardAlpha"/>
            <feOffset dy="4"/>
            <feGaussianBlur stdDeviation="2"/>
            <feComposite in2="hardAlpha" operator="out"/>
            <feColorMatrix values="0 0 0 0 0 0 0 0 0 0 0 0 0 0 0 0 0 0 0.25 0"/>
            <feBlend in2="BackgroundImageFix" result="effect1_dropShadow_287_8457"/>
            <feBlend in="SourceGraphic" in2="effect1_dropShadow_287_8457" result="shape"/>
        </filter>
    </defs>
</svg>
