<svg width="25" height="20" viewBox="0 0 25 20" fill="none" xmlns="http://www.w3.org/2000/svg">
    <path d="M12.5 15.625c-2.963 0-5.361-2.293-5.582-5.2L2.82 7.26c-.538.675-1.034 1.39-1.434 2.171a1.264 1.264 0 0 0 0 1.14C3.504 14.704 7.698 17.5 12.5 17.5a12.13 12.13 0 0 0 3.043-.409l-2.027-1.568a5.63 5.63 0 0 1-1.016.102zm12.259 2.27-4.319-3.338a12.94 12.94 0 0 0 3.174-3.987 1.264 1.264 0 0 0 0-1.14C21.496 5.297 17.302 2.5 12.5 2.5c-2.011.003-3.99.509-5.755 1.473L1.775.132a.625.625 0 0 0-.877.11l-.766.987a.625.625 0 0 0 .11.877l22.982 17.763a.624.624 0 0 0 .878-.11l.767-.987a.625.625 0 0 0-.11-.877zm-7.177-5.547-1.535-1.187a3.701 3.701 0 0 0-4.536-4.763c.236.32.363.705.364 1.102a1.824 1.824 0 0 1-.06.39L8.939 5.669a5.559 5.559 0 0 1 3.56-1.293A5.622 5.622 0 0 1 18.126 10a5.49 5.49 0 0 1-.543 2.348z" fill="#bababa"/>
</svg>
