<svg width="27" height="27" viewBox="0 0 27 27" fill="none" xmlns="http://www.w3.org/2000/svg">
    <path d="M21 1H6a5 5 0 0 0-5 5v15a5 5 0 0 0 5 5h15a5 5 0 0 0 5-5V6a5 5 0 0 0-5-5z" stroke="#001689" stroke-miterlimit="10" stroke-linejoin="round"/>
    <path d="m13.95 9.768.381.525.41-.503c.414-.506.87-1.01 1.367-1.496.94.956 1.754 2.146 2.353 3.3C19.138 12.9 19.5 14.09 19.5 14.8c0 3.714-2.923 6.7-6.5 6.7s-6.5-2.986-6.5-6.7c0-.985.49-2.379 1.403-3.916.835-1.405 1.992-2.88 3.348-4.195a23.496 23.496 0 0 1 2.699 3.079zm1.87 2.73-1.435 1.636-.08-.103-1.012-1.288a163.637 163.637 0 0 0-1.64-2.07l-.386-.444-.376.45c-.756.907-1.35 1.655-1.753 2.339-.408.693-.638 1.348-.638 2.068 0 1.345.513 2.46 1.362 3.235.844.77 1.991 1.179 3.227 1.179a4.7 4.7 0 0 0 2.7-.845c1.772-1.24 2.157-3.613 1.201-5.436-.11-.21-.232-.428-.367-.65l-.353-.586-.45.514z" stroke="#001689"/>
</svg>
