<svg width="150" height="222" viewBox="0 0 150 222" fill="none" xmlns="http://www.w3.org/2000/svg">
<g filter="url(#filter0_d_354_6660)">
<path d="M76.6911 213.253C63.0219 213.253 50.7003 210.943 39.7264 206.323C28.7525 201.509 20.0889 194.579 13.7355 185.53C7.38222 176.481 4.20557 165.604 4.20557 152.897C4.20557 144.233 6.03455 138.554 9.69252 135.858C13.543 132.971 19.3188 131.527 27.0197 131.527C32.7955 131.527 37.8011 132.489 42.0367 134.415C46.4647 136.147 48.8713 139.709 49.2563 145.1C49.6414 148.758 50.3152 152.897 51.2779 157.518C52.2405 161.946 54.4545 165.796 57.92 169.069C61.3854 172.342 66.9686 173.978 74.6696 173.978C83.1407 173.978 89.5903 171.668 94.0183 167.047C98.6389 162.234 100.949 154.918 100.949 145.1V39.6924H75.8248C71.5892 39.6924 68.22 37.7671 65.7172 33.9167C63.4069 29.8736 62.2518 25.1568 62.2518 19.7661C62.2518 15.1455 63.3107 10.8137 65.4284 6.77066C67.5462 2.53513 71.0116 0.417358 75.8248 0.417358H126.362C131.368 0.417358 135.892 1.5725 139.935 3.88279C143.978 6.19309 146 9.65854 146 14.2791V145.1C146 161.657 142.823 174.941 136.47 184.952C130.309 194.964 121.934 202.183 111.346 206.611C100.949 211.039 89.3977 213.253 76.6911 213.253Z" fill="url(#paint0_linear_354_6660)"/>
</g>
<circle cx="27.4934" cy="83.5476" r="23.2878" fill="#E5A3B7"/>
<defs>
<filter id="filter0_d_354_6660" x="0.205566" y="0.417358" width="149.794" height="220.836" filterUnits="userSpaceOnUse" color-interpolation-filters="sRGB">
<feFlood flood-opacity="0" result="BackgroundImageFix"/>
<feColorMatrix in="SourceAlpha" type="matrix" values="0 0 0 0 0 0 0 0 0 0 0 0 0 0 0 0 0 0 127 0" result="hardAlpha"/>
<feOffset dy="4"/>
<feGaussianBlur stdDeviation="2"/>
<feComposite in2="hardAlpha" operator="out"/>
<feColorMatrix type="matrix" values="0 0 0 0 0 0 0 0 0 0 0 0 0 0 0 0 0 0 0.25 0"/>
<feBlend mode="normal" in2="BackgroundImageFix" result="effect1_dropShadow_354_6660"/>
<feBlend mode="normal" in="SourceGraphic" in2="effect1_dropShadow_354_6660" result="shape"/>
</filter>
<linearGradient id="paint0_linear_354_6660" x1="75.1028" y1="0.417358" x2="75.1028" y2="213.253" gradientUnits="userSpaceOnUse">
<stop stop-color="#FF7082"/>
<stop offset="1" stop-color="#C0E9FF"/>
</linearGradient>
</defs>
</svg>
