<svg width="58" height="58" viewBox="0 0 58 58" fill="none" xmlns="http://www.w3.org/2000/svg">
    <g mask="url(#wfxibkmorb)" fill="#fff">
        <path d="m-7.201-10.913-2.984 2.763 21.768 20.157 2.985-2.764-21.77-20.156zM18.932-10.912l-2.985 2.764 21.769 20.156L40.7 9.244 18.932-10.912zM45.183-10.912l-2.985 2.764 21.769 20.156 2.984-2.764-21.768-20.156z"/>
        <path d="m-7.198-11.655-2.985 2.763 21.77 20.156 2.983-2.763-21.768-20.156zM19.05-11.655l-2.984 2.763 21.77 20.156 2.983-2.763-21.768-20.156zM-7.201 12.65l-2.984 2.763L11.583 35.57l2.985-2.763-21.77-20.156zM2.683 20.498l3.042 2.772 9.532-8.693V9.04L2.683 20.498zM19.05 12.65l-2.985 2.764 21.77 20.156 2.983-2.764L19.05 12.65zM-7.201 36.956l-2.984 2.763 21.768 20.156 2.985-2.763-21.77-20.156zM12.462 36.206h2.794v-2.587l-2.794 2.587z"/>
        <path d="m-7.317 12.652-2.985 2.763 21.769 20.156 2.984-2.763-21.768-20.156zM15.257 33.397v2.81h3.034l9.54-8.834-3.034-2.81-9.54 8.834zM18.934 36.958l-2.985 2.763 21.769 20.156 2.984-2.763-21.768-20.156zM-7.315-11.655-10.3-8.89 11.47 11.265l2.984-2.763-21.768-20.157zM18.933-11.654 15.948-8.89l21.769 20.157L40.7 8.502 18.933-11.654zM45.185-11.654 42.201-8.89 63.97 11.266l2.984-2.764-21.768-20.156zM15.257 8.697v5.517L27.83 2.738 24.804-.016l-9.547 8.713zM18.933 12.652l-2.985 2.763L37.717 35.57l2.984-2.763L18.933 12.65zM50.843.494 29.074 20.65l2.985 2.763L53.827 3.257 50.843.494zM45.183 12.652l-2.985 2.764 21.769 20.156 2.984-2.764-21.768-20.156zM39.007 36.206h5.989l9.38-8.834-2.995-2.808-12.374 11.642zM45.183 36.958l-2.985 2.763 21.769 20.156 2.984-2.763-21.768-20.156z"/>
        <path d="m45.066 12.653-2.984 2.763 21.769 20.157 2.984-2.764-21.769-20.156zM45.067-11.652 42.083-8.89l21.769 20.156 2.984-2.763-21.769-20.156zM-7.203 11.902l-2.984 2.764L11.58 34.822l2.985-2.764-21.77-20.156zM-9.892 39.078l9.288 8.772h6.081L-6.85 36.206l-3.04 2.872zM12.22 34.912l-9.537 8.834 3.027 2.81 9.547-8.834v-2.81h-3.036zM19.046 36.207l-2.985 2.764 21.77 20.156 2.984-2.764-21.77-20.156zM18.929 11.903l-2.985 2.763 21.769 20.156 2.984-2.763L18.93 11.903z"/>
        <path d="m-7.32 36.208-2.985 2.763 21.769 20.157 2.984-2.764L-7.32 36.208zM15.257 34.912v3.881l2.794-3.88h-2.794zM45.179 11.903l-2.985 2.764 21.769 20.156 2.984-2.763L45.18 11.903zM15.257 39.078l9.287 8.772h6.082L18.298 36.206l-3.041 2.872zM38.631 34.912l-9.404 8.849 2.982 2.794 12.386-11.643h-5.964zM41.804 39.078l9.287 8.772h6.081L44.844 36.206l-3.04 2.872z"/>
        <path d="m45.065 36.21-2.984 2.764L63.85 59.13l2.984-2.763-21.769-20.156z"/>
    </g>
    <defs>
        <filter id="9hy37n14pa" x="0" y="0" width="58" height="58" filterUnits="userSpaceOnUse" color-interpolation-filters="sRGB">
            <feFlood flood-opacity="0" result="BackgroundImageFix"/>
            <feColorMatrix in="SourceAlpha" values="0 0 0 0 0 0 0 0 0 0 0 0 0 0 0 0 0 0 127 0" result="hardAlpha"/>
            <feOffset dy="4"/>
            <feGaussianBlur stdDeviation="2"/>
            <feComposite in2="hardAlpha" operator="out"/>
            <feColorMatrix values="0 0 0 0 0 0 0 0 0 0 0 0 0 0 0 0 0 0 0.12 0"/>
            <feBlend in2="BackgroundImageFix" result="effect1_dropShadow_235_5765"/>
            <feBlend in="SourceGraphic" in2="effect1_dropShadow_235_5765" result="shape"/>
        </filter>
    </defs>
</svg>
