<svg width="50" height="50" viewBox="0 0 50 50" fill="none" xmlns="http://www.w3.org/2000/svg">
    <mask id="sikpw7i9na" style="mask-type:alpha" maskUnits="userSpaceOnUse" x="0" y="0" width="50" height="50">
        <rect width="50" height="50" rx="10" fill="#D9D9D9"/>
    </mask>
    <g mask="url(#sikpw7i9na)">
        <g filter="url(#1b8htzz6wb)">
            <path d="M25.535 18.844c3.667-15.542 24.656-5.3 14.905 7.503C36.717 31.265 31.17 36.21 25.454 39c-1.137-.017-2.299-1.148-3.367-1.885-31.621-20.383-.668-36.225 3.13-18.298.112.01.212.016.318.027z" fill="#fff"/>
        </g>
        <path d="M62.749 29.15c1.63-6.396 10.957-2.182 6.624 3.086-1.655 2.024-4.12 4.059-6.66 5.206-.505-.007-1.022-.472-1.496-.775-14.053-8.387-.297-14.905 1.39-7.53l.142.012z" fill="#fff"/>
    </g>
    <defs>
        <filter id="1b8htzz6wb" x="4" y="11" width="43" height="36" filterUnits="userSpaceOnUse" color-interpolation-filters="sRGB">
            <feFlood flood-opacity="0" result="BackgroundImageFix"/>
            <feColorMatrix in="SourceAlpha" values="0 0 0 0 0 0 0 0 0 0 0 0 0 0 0 0 0 0 127 0" result="hardAlpha"/>
            <feOffset dy="4"/>
            <feGaussianBlur stdDeviation="2"/>
            <feComposite in2="hardAlpha" operator="out"/>
            <feColorMatrix values="0 0 0 0 0 0 0 0 0 0 0 0 0 0 0 0 0 0 0.25 0"/>
            <feBlend in2="BackgroundImageFix" result="effect1_dropShadow_210_7215"/>
            <feBlend in="SourceGraphic" in2="effect1_dropShadow_210_7215" result="shape"/>
        </filter>
    </defs>
</svg>
