<svg width="58" height="58" viewBox="0 0 58 58" fill="none" xmlns="http://www.w3.org/2000/svg">
    <g mask="url(#pf7yibqiyb)" fill="#fff">
        <path d="M38.276 41.414c-2.7 0-4.915-1.943-5.103-4.397-2.65-.173-4.75-2.228-4.75-4.723 0-2.495 2.1-4.55 4.75-4.727.188-2.454 2.407-4.397 5.103-4.397 2.7 0 4.915 1.943 5.106 4.397 2.65.174 4.75 2.228 4.75 4.727s-2.1 4.55-4.75 4.723c-.19 2.454-2.407 4.397-5.106 4.397zm-4.739-13.16c-2.403 0-4.36 1.812-4.36 4.036 0 2.225 1.957 4.037 4.36 4.037h.379v.35c0 2.225 1.957 4.036 4.36 4.036 2.403 0 4.36-1.811 4.36-4.036v-.35h.379c2.403 0 4.36-1.812 4.36-4.037 0-2.224-1.957-4.036-4.36-4.036h-.379v-.35c0-2.225-1.957-4.037-4.36-4.037-2.403 0-4.36 1.812-4.36 4.037v.35h-.379z"/>
        <path d="M19.324 41.414c-2.7 0-4.915-1.943-5.103-4.397-2.65-.173-4.75-2.228-4.75-4.723 0-2.495 2.1-4.55 4.75-4.727.188-2.454 2.407-4.397 5.103-4.397 2.7 0 4.915 1.943 5.106 4.397 2.65.174 4.75 2.228 4.75 4.727s-2.1 4.55-4.75 4.723c-.191 2.454-2.407 4.397-5.106 4.397zm-4.739-13.16c-2.403 0-4.36 1.812-4.36 4.036 0 2.225 1.957 4.037 4.36 4.037h.379v.35c0 2.225 1.957 4.036 4.36 4.036 2.403 0 4.36-1.811 4.36-4.036v-.35h.379c2.403 0 4.36-1.812 4.36-4.037 0-2.224-1.957-4.036-4.36-4.036h-.379v-.35c0-2.225-1.957-4.037-4.36-4.037-2.403 0-4.36 1.812-4.36 4.037v.35h-.379zM38.276 6.723c-2.7 0-4.915-1.943-5.103-4.397-2.65-.173-4.75-2.228-4.75-4.723 0-2.499 2.1-4.55 4.75-4.727.188-2.454 2.404-4.397 5.103-4.397 2.7 0 4.915 1.943 5.106 4.397 2.65.174 4.75 2.228 4.75 4.727s-2.1 4.55-4.75 4.723c-.19 2.454-2.407 4.397-5.106 4.397zM33.537-6.433c-2.403 0-4.36 1.811-4.36 4.036 0 2.224 1.957 4.036 4.36 4.036h.379v.35c0 2.225 1.957 4.037 4.36 4.037 2.403 0 4.36-1.812 4.36-4.036v-.35h.379c2.403 0 4.36-1.813 4.36-4.037 0-2.225-1.957-4.036-4.36-4.036h-.379v-.35c0-2.225-1.957-4.037-4.36-4.037-2.403 0-4.36 1.812-4.36 4.036v.35h-.379z"/>
        <path d="M19.324 6.723c-2.7 0-4.915-1.943-5.103-4.397-2.65-.173-4.75-2.228-4.75-4.723 0-2.499 2.1-4.55 4.75-4.727.188-2.454 2.404-4.397 5.103-4.397 2.7 0 4.915 1.943 5.106 4.397 2.65.174 4.75 2.228 4.75 4.727s-2.1 4.55-4.75 4.723c-.191 2.454-2.407 4.397-5.106 4.397zM14.585-6.433c-2.403 0-4.36 1.811-4.36 4.036 0 2.224 1.957 4.036 4.36 4.036h.379v.35c0 2.225 1.957 4.037 4.36 4.037 2.403 0 4.36-1.812 4.36-4.036v-.35h.379c2.403 0 4.36-1.813 4.36-4.037 0-2.225-1.957-4.036-4.36-4.036h-.379v-.35c0-2.225-1.957-4.037-4.36-4.037-2.403 0-4.36 1.812-4.36 4.036v.35h-.379zM48.042 24.09c-2.7 0-4.915-1.944-5.102-4.397-2.651-.174-4.75-2.228-4.75-4.724 0-2.498 2.099-4.55 4.75-4.726.187-2.454 2.407-4.398 5.102-4.398 2.7 0 4.915 1.944 5.106 4.398 2.651.173 4.75 2.228 4.75 4.726 0 2.5-2.099 4.55-4.75 4.724-.19 2.453-2.407 4.397-5.106 4.397zm-4.739-13.16c-2.403 0-4.36 1.811-4.36 4.036 0 2.225 1.957 4.036 4.36 4.036h.379v.35c0 2.225 1.957 4.037 4.36 4.037 2.403 0 4.36-1.812 4.36-4.036v-.351h.379c2.403 0 4.36-1.811 4.36-4.036 0-2.225-1.957-4.036-4.36-4.036h-.379v-.35c0-2.225-1.957-4.037-4.36-4.037-2.403 0-4.36 1.812-4.36 4.036v.35h-.379zM10.135 24.09c-2.7 0-4.915-1.944-5.103-4.397-2.65-.174-4.75-2.228-4.75-4.724 0-2.498 2.1-4.55 4.75-4.726.188-2.454 2.407-4.398 5.103-4.398 2.7 0 4.915 1.944 5.106 4.398 2.65.173 4.75 2.228 4.75 4.726 0 2.5-2.1 4.55-4.75 4.724-.191 2.453-2.407 4.397-5.106 4.397zM5.396 10.93c-2.403 0-4.36 1.811-4.36 4.036 0 2.225 1.957 4.036 4.36 4.036h.379v.35c0 2.225 1.957 4.037 4.36 4.037 2.403 0 4.36-1.812 4.36-4.036v-.351h.379c2.403 0 4.36-1.811 4.36-4.036 0-2.225-1.957-4.036-4.36-4.036h-.379v-.35c0-2.225-1.957-4.037-4.36-4.037-2.403 0-4.36 1.812-4.36 4.036v.35h-.379zM57.402 41.286c-2.7 0-4.915-1.943-5.103-4.397-2.65-.173-4.75-2.228-4.75-4.723 0-2.499 2.1-4.55 4.75-4.727.188-2.454 2.407-4.397 5.103-4.397 2.7 0 4.915 1.943 5.106 4.397 2.65.174 4.75 2.228 4.75 4.727s-2.1 4.55-4.75 4.723c-.191 2.454-2.407 4.397-5.106 4.397zm-4.739-13.16c-2.403 0-4.36 1.812-4.36 4.036 0 2.225 1.957 4.037 4.36 4.037h.379v.35c0 2.225 1.957 4.036 4.36 4.036 2.403 0 4.36-1.811 4.36-4.036v-.35h.379c2.403 0 4.36-1.812 4.36-4.037 0-2.224-1.957-4.036-4.36-4.036h-.379v-.35c0-2.225-1.957-4.036-4.36-4.036-2.403 0-4.36 1.811-4.36 4.036v.35h-.379zM28.657 59.656c-2.699 0-4.915-1.944-5.102-4.397-2.65-.174-4.75-2.228-4.75-4.724 0-2.495 2.1-4.55 4.75-4.726.187-2.454 2.407-4.398 5.102-4.398 2.7 0 4.915 1.944 5.107 4.398 2.65.173 4.75 2.227 4.75 4.726s-2.1 4.55-4.75 4.724c-.192 2.453-2.407 4.397-5.107 4.397zm-4.738-13.16c-2.404 0-4.36 1.811-4.36 4.036 0 2.224 1.956 4.036 4.36 4.036h.378v.35c0 2.225 1.957 4.037 4.36 4.037 2.404 0 4.36-1.812 4.36-4.036v-.351h.38c2.402 0 4.36-1.812 4.36-4.036 0-2.225-1.958-4.036-4.36-4.036h-.38v-.35c0-2.226-1.957-4.037-4.36-4.037-2.403 0-4.36 1.811-4.36 4.036v.35h-.378z"/>
        <path d="M9.705 59.656c-2.7 0-4.915-1.944-5.102-4.397-2.651-.174-4.75-2.228-4.75-4.724 0-2.495 2.099-4.55 4.75-4.726.187-2.454 2.407-4.398 5.102-4.398 2.7 0 4.915 1.944 5.107 4.398 2.65.173 4.75 2.227 4.75 4.726s-2.1 4.55-4.75 4.724c-.192 2.453-2.407 4.397-5.107 4.397zm-4.739-13.16c-2.403 0-4.36 1.811-4.36 4.036 0 2.224 1.957 4.036 4.36 4.036h.379v.35c0 2.225 1.957 4.037 4.36 4.037 2.403 0 4.36-1.812 4.36-4.036v-.351h.38c2.402 0 4.36-1.812 4.36-4.036 0-2.225-1.958-4.036-4.36-4.036h-.38v-.35c0-2.226-1.957-4.037-4.36-4.037-2.403 0-4.36 1.811-4.36 4.036v.35h-.379zM47.784 59.528c-2.7 0-4.915-1.944-5.103-4.397-2.65-.174-4.75-2.228-4.75-4.723 0-2.5 2.1-4.55 4.75-4.727.188-2.454 2.407-4.397 5.103-4.397 2.7 0 4.915 1.943 5.106 4.397 2.65.173 4.75 2.228 4.75 4.727 0 2.498-2.1 4.55-4.75 4.723-.191 2.453-2.407 4.397-5.106 4.397zm-4.74-13.16c-2.402 0-4.36 1.811-4.36 4.036 0 2.225 1.958 4.036 4.36 4.036h.38v.35c0 2.225 1.957 4.037 4.36 4.037 2.403 0 4.36-1.812 4.36-4.036v-.35h.379c2.403 0 4.36-1.812 4.36-4.037 0-2.225-1.957-4.036-4.36-4.036h-.379v-.35c0-2.225-1.957-4.037-4.36-4.037-2.403 0-4.36 1.812-4.36 4.036v.35h-.38zM29.087 24.09c-2.7 0-4.915-1.944-5.103-4.397-2.65-.174-4.75-2.228-4.75-4.724 0-2.498 2.1-4.55 4.75-4.726.188-2.454 2.407-4.398 5.102-4.398 2.7 0 4.916 1.944 5.107 4.398 2.65.173 4.75 2.228 4.75 4.726 0 2.5-2.1 4.55-4.75 4.724-.188 2.453-2.407 4.397-5.106 4.397zM24.35 10.93c-2.403 0-4.36 1.811-4.36 4.036 0 2.225 1.957 4.036 4.36 4.036h.38v.35c0 2.225 1.956 4.037 4.36 4.037 2.402 0 4.36-1.812 4.36-4.036v-.351h.378c2.403 0 4.36-1.811 4.36-4.036 0-2.225-1.957-4.036-4.36-4.036h-.379v-.35c0-2.225-1.957-4.037-4.36-4.037-2.403 0-4.36 1.812-4.36 4.036v.35h-.379zM.373 41.286c-2.7 0-4.915-1.943-5.102-4.397-2.651-.173-4.75-2.228-4.75-4.723 0-2.499 2.099-4.55 4.75-4.727.187-2.454 2.407-4.397 5.102-4.397 2.7 0 4.915 1.943 5.106 4.397 2.651.174 4.75 2.228 4.75 4.727s-2.099 4.55-4.75 4.723c-.19 2.454-2.406 4.397-5.106 4.397zm-4.739-13.16c-2.403 0-4.36 1.812-4.36 4.036 0 2.225 1.957 4.037 4.36 4.037h.379v.35c0 2.225 1.957 4.036 4.36 4.036 2.403 0 4.36-1.811 4.36-4.036v-.35h.379c2.403 0 4.36-1.812 4.36-4.037 0-2.224-1.957-4.036-4.36-4.036h-.379v-.35c0-2.225-1.957-4.036-4.36-4.036-2.403 0-4.36 1.811-4.36 4.036v.35h-.379z"/>
    </g>
    <defs>
        <filter id="rwxsc7pi3a" x="0" y="0" width="58" height="58" filterUnits="userSpaceOnUse" color-interpolation-filters="sRGB">
            <feFlood flood-opacity="0" result="BackgroundImageFix"/>
            <feColorMatrix in="SourceAlpha" values="0 0 0 0 0 0 0 0 0 0 0 0 0 0 0 0 0 0 127 0" result="hardAlpha"/>
            <feOffset dy="4"/>
            <feGaussianBlur stdDeviation="2"/>
            <feComposite in2="hardAlpha" operator="out"/>
            <feColorMatrix values="0 0 0 0 0 0 0 0 0 0 0 0 0 0 0 0 0 0 0.12 0"/>
            <feBlend in2="BackgroundImageFix" result="effect1_dropShadow_235_8984"/>
            <feBlend in="SourceGraphic" in2="effect1_dropShadow_235_8984" result="shape"/>
        </filter>
    </defs>
</svg>
