<svg width="58" height="60" viewBox="0 0 58 60" fill="none" xmlns="http://www.w3.org/2000/svg">
    <g mask="url(#qk3nagz7zb)" fill="#fff">
        <path d="M44.965-9.496v5.182h6.233L44.966.696v3.302l10.342-8.312v-3.302l6.443-5.182h-6.443v-5.181l-6.45 5.181h-3.892L34.42-4.314h4.102l6.443-5.182zM5.465-10.313v5.495h5.408L5.465.496v3.502l8.976-8.816V-8.32l5.595-5.495h-5.595v-5.496l-5.595 5.496h-3.38l-9.164 8.997H-.13l5.595-5.495zM25.485-9.496v5.182h4.92l-4.92 5.01v3.302l8.164-8.312v-3.302l5.087-5.182h-5.087v-5.181l-5.086 5.181h-3.078l-8.326 8.484h3.239l5.087-5.182zM44.965 8.077v5.338h6.233l-6.233 5.162v3.402l10.342-8.564v-3.402l6.443-5.338h-6.443V-.664l-6.443 5.339h-3.899l-10.545 8.74h4.102l6.443-5.338zM6.02 8.077v5.338h5.736L6.02 18.577v3.402l9.52-8.564v-3.402l5.933-5.338H15.54V-.664L9.606 4.675H6.02l-9.72 8.74H.087l5.935-5.338zM25.485 8.077v5.338h4.92l-4.92 5.162v3.402l8.164-8.564v-3.402l5.087-5.338h-5.087V-.664l-5.086 5.339h-3.078l-8.326 8.74h3.239l5.087-5.338zM25.49 25.8v5.182h4.915l-4.916 5.015v3.297l8.16-8.312V27.68l5.087-5.181h-5.087v-5.182L28.563 22.5H25.49l-8.33 8.483h3.243l5.087-5.181zM6.02 25.8v5.182h5.736L6.02 35.997v3.297l9.52-8.312V27.68l5.933-5.181H15.54v-5.182L9.606 22.5H6.02l-9.72 8.483H.087l5.935-5.181zM44.965 25.8v5.182h6.233l-6.233 5.015v3.297l10.342-8.312V27.68l6.443-5.181h-6.443v-5.182L48.864 22.5h-3.899L34.42 30.982h4.102l6.443-5.181zM25.485 44.399v5.965h4.92l-4.92 5.774v3.801l8.16-9.575v-3.801l5.09-5.966h-5.09v-5.965l-5.087 5.965h-3.073l-8.326 9.767h3.239l5.087-5.965zM6.015 44.399v5.965h5.74l-5.74 5.774v3.801l9.525-9.575v-3.801l5.934-5.966H15.54v-5.965l-5.934 5.965H6.015l-9.713 9.767H.08l5.935-5.965zM44.972 44.399v5.965h6.233l-6.233 5.774v3.801l10.335-9.575v-3.801l6.443-5.966h-6.443v-5.965l-6.443 5.965h-3.892L34.42 50.364h4.109l6.443-5.965z"/>
    </g>
    <defs>
        <filter id="krf0r1t2xa" x=".002" y="2" width="57.998" height="57.999" filterUnits="userSpaceOnUse" color-interpolation-filters="sRGB">
            <feFlood flood-opacity="0" result="BackgroundImageFix"/>
            <feColorMatrix in="SourceAlpha" values="0 0 0 0 0 0 0 0 0 0 0 0 0 0 0 0 0 0 127 0" result="hardAlpha"/>
            <feOffset dy="4"/>
            <feGaussianBlur stdDeviation="2"/>
            <feComposite in2="hardAlpha" operator="out"/>
            <feColorMatrix values="0 0 0 0 0 0 0 0 0 0 0 0 0 0 0 0 0 0 0.12 0"/>
            <feBlend in2="BackgroundImageFix" result="effect1_dropShadow_235_7862"/>
            <feBlend in="SourceGraphic" in2="effect1_dropShadow_235_7862" result="shape"/>
        </filter>
    </defs>
</svg>
