<svg width="58" height="53" viewBox="0 0 58 53" fill="none" xmlns="http://www.w3.org/2000/svg">
    <g mask="url(#ipis50rjia)" fill="#FBFBFD">
        <path d="M17.511 3.492H-5.332V4.55h22.843V3.492zM17.511 1.377H-5.332v1.059h22.843V1.377zM17.511 20.41H-5.332v.53h22.843v-.53zM17.511 18.295H-5.332v1.06h22.843v-1.06zM17.511 16.18H-5.332v1.06h22.843v-1.06z"/>
        <path d="M17.51 0h-.572v20.94h.572V0zM15.798 0h-1.144v20.94h1.144V0zM13.512 0h-1.14v20.94h1.14V0z"/>
        <path d="M40.203 3.492H17.36V4.55h22.843V3.492zM40.203 1.377H17.36v1.059h22.843V1.377zM40.203 20.41H17.36v.53h22.843v-.53zM40.203 18.295H17.36v1.06h22.843v-1.06zM40.203 16.18H17.36v1.06h22.843v-1.06z"/>
        <path d="M22.499 0h-1.143v20.94h1.143V0zM20.215 0H19.07v20.94h1.144V0zM17.932 0h-.572v20.94h.572V0zM40.2 0h-.572v20.94h.572V0zM38.488 0h-1.143v20.94h1.143V0zM36.204 0H35.06v20.94h1.144V0z"/>
        <path d="M64.061 3.492H40.048V4.55H64.06V3.492zM64.061 1.377H40.048v1.059H64.06V1.377zM64.061 20.41H40.048v.53H64.06v-.53zM64.061 18.295H40.048v1.06H64.06v-1.06zM64.061 16.18H40.048v1.06H64.06v-1.06z"/>
        <path d="M45.188 0h-1.143v20.94h1.143V0zM42.905 0h-1.143v20.94h1.143V0zM40.62 0h-.572v20.94h.572V0zM17.511 24.711H-5.332v1.06h22.843v-1.06zM17.511 22.596H-5.332v1.06h22.843v-1.06zM17.511 21.011H-5.332v.53h22.843v-.53zM17.511 41.63H-5.332v.53h22.843v-.53zM17.511 39.515H-5.332v1.059h22.843v-1.06zM17.511 37.4H-5.332v1.059h22.843V37.4z"/>
        <path d="M17.51 21.011h-.572v21.151h.572v-21.15zM15.798 21.011h-1.144v21.151h1.144v-21.15zM13.512 21.011h-1.14v21.151h1.14v-21.15z"/>
        <path d="M40.203 24.711H17.36v1.06h22.843v-1.06zM40.203 22.596H17.36v1.06h22.843v-1.06zM40.203 21.011H17.36v.53h22.843v-.53zM40.203 41.63H17.36v.53h22.843v-.53zM40.203 39.515H17.36v1.059h22.843v-1.06zM40.203 37.4H17.36v1.059h22.843V37.4z"/>
        <path d="M22.499 21.011h-1.143v21.151h1.143v-21.15zM20.215 21.011H19.07v21.151h1.144v-21.15zM17.932 21.011h-.572v21.151h.572v-21.15zM40.2 21.011h-.572v21.151h.572v-21.15zM38.488 21.011h-1.143v21.151h1.143v-21.15zM36.204 21.011H35.06v21.151h1.144v-21.15z"/>
        <path d="M64.061 24.711H40.048v1.06H64.06v-1.06zM64.061 22.596H40.048v1.06H64.06v-1.06zM64.061 21.011H40.048v.53H64.06v-.53zM64.061 41.63H40.048v.53H64.06v-.53zM64.061 39.515H40.048v1.059H64.06v-1.06zM64.061 37.4H40.048v1.059H64.06V37.4z"/>
        <path d="M45.188 21.011h-1.143v21.151h1.143v-21.15zM42.905 21.011h-1.143v21.151h1.143v-21.15zM40.62 21.011h-.572v21.151h.572v-21.15zM17.511 45.931H-5.332v1.059h22.843V45.93zM17.511 43.816H-5.332v1.059h22.843v-1.059zM17.511 42.23H-5.332v.53h22.843v-.53z"/>
        <path d="M17.51 42.23h-.572v10.575h.572V42.23zM15.798 42.23h-1.144v10.575h1.144V42.23zM13.512 42.23h-1.14v10.575h1.14V42.23z"/>
        <path d="M40.203 45.931H17.36v1.059h22.843V45.93zM40.203 43.816H17.36v1.059h22.843v-1.059zM40.203 42.23H17.36v.53h22.843v-.53z"/>
        <path d="M22.499 42.23h-1.143v10.575h1.143V42.23zM20.215 42.23H19.07v10.575h1.144V42.23zM17.932 42.23h-.572v10.575h.572V42.23zM40.2 42.23h-.572v10.575h.572V42.23zM38.488 42.23h-1.143v10.575h1.143V42.23zM36.204 42.23H35.06v10.575h1.144V42.23z"/>
        <path d="M64.061 45.931H40.048v1.059H64.06V45.93zM64.061 43.816H40.048v1.059H64.06v-1.059zM64.061 42.23H40.048v.53H64.06v-.53z"/>
        <path d="M45.188 42.23h-1.143v10.575h1.143V42.23zM42.905 42.23h-1.143v10.575h1.143V42.23zM40.62 42.23h-.572v10.575h.572V42.23z"/>
    </g>
</svg>
