<svg width="34" height="39" viewBox="0 0 34 39" fill="none" xmlns="http://www.w3.org/2000/svg">
    <path d="m33.282 28.346-.608-.355.677-.343a.474.474 0 1 0-.43-.848l-1.224.62-1.867-1.088 1.916-.97a.474.474 0 1 0-.43-.847l-2.463 1.247-2.045-1.193 3.265-1.653a.474.474 0 1 0-.43-.847l-3.81 1.93-2.223-1.296a.948.948 0 0 0-.185-.611l-1.761-2.363 1.518.005 1.43 2.228a.476.476 0 0 0 .8-.512l-1.098-1.713 1.114.004.905 1.412a.476.476 0 0 0 .802-.512l-.576-.896 1.132.003a.475.475 0 1 0 .002-.95l-1.136-.003.58-.893a.474.474 0 0 0-.14-.657.477.477 0 0 0-.657.14l-.914 1.406-1.115-.003 1.109-1.706a.476.476 0 0 0-.798-.517l-1.442 2.22-1.516-.006 1.738-2.33a.943.943 0 0 0 .212-.598l2.211-1.291 3.813 1.927a.475.475 0 1 0 .43-.847l-3.265-1.65 2.043-1.194 2.463 1.245a.475.475 0 0 0 .43-.846l-1.916-.97 1.867-1.09 1.224.62a.473.473 0 0 0 .639-.21.474.474 0 0 0-.21-.637l-.677-.343.615-.36a.475.475 0 1 0-.48-.82l-.609.356.033-.758a.475.475 0 0 0-.455-.495.489.489 0 0 0-.495.455l-.059 1.369-1.866 1.09.092-2.142a.475.475 0 0 0-.454-.495.491.491 0 0 0-.495.454l-.12 2.753-2.044 1.194.158-3.65a.475.475 0 0 0-.454-.495c-.234-.004-.484.192-.496.454l-.186 4.261-2.216 1.295a.94.94 0 0 0-.464-.13h-.01a.904.904 0 0 0-.124.009l-2.957.345.785-1.348 2.647-.122a.474.474 0 0 0 .453-.496.47.47 0 0 0-.496-.453l-2.035.094.56-.962 1.678-.077a.475.475 0 1 0-.044-.948l-1.066.049.569-.977a.475.475 0 1 0-.822-.477l-.571.98-.484-.948a.476.476 0 0 0-.847.431l.762 1.494-.56.962-.926-1.812a.475.475 0 0 0-.847.432l1.203 2.357-.76 1.303-1.151-2.665a.947.947 0 0 0-.394-.441V9.099l3.592-2.312a.474.474 0 1 0-.515-.798l-3.076 1.98V5.605l2.32-1.494a.474.474 0 1 0-.515-.798l-1.805 1.162v-2.16l1.153-.742a.474.474 0 1 0-.515-.799l-.638.41v-.71a.475.475 0 0 0-.95 0v.704l-.639-.41a.476.476 0 0 0-.515.797l1.154.743v2.159L14.48 3.305a.476.476 0 0 0-.516.798l2.321 1.493v2.365l-3.077-1.98a.474.474 0 1 0-.515.798l3.592 2.312v2.534a.947.947 0 0 0-.402.447l-1.184 2.74-.803-1.378 1.204-2.357a.476.476 0 0 0-.847-.431l-.926 1.811-.56-.962L13.53 10a.475.475 0 0 0-.847-.432l-.485.95-.57-.981a.476.476 0 0 0-.822.477l.568.976-1.065-.049a.478.478 0 0 0-.497.452.475.475 0 0 0 .454.496l1.677.078.56.962-2.035-.094a.481.481 0 0 0-.497.452.475.475 0 0 0 .454.496l2.647.122.78 1.339-2.89-.337a.945.945 0 0 0-.54.102l-2.151-1.256-.187-4.263a.474.474 0 1 0-.95.041l.16 3.652-2.045-1.193-.12-2.754a.486.486 0 0 0-.497-.454.475.475 0 0 0-.453.495l.094 2.143-1.867-1.09-.06-1.368a.476.476 0 0 0-.95.04l.033.759-.714-.417a.474.474 0 1 0-.479.82l.708.412-.678.343a.474.474 0 1 0 .43.847l1.224-.62 1.867 1.09-1.915.969a.474.474 0 0 0 .216.898.474.474 0 0 0 .214-.051l2.463-1.247 2.045 1.193-3.264 1.653a.474.474 0 1 0 .43.847l3.812-1.93 2.118 1.236c-.01.216.05.433.185.613l1.738 2.331-1.515-.005-1.43-2.228a.476.476 0 0 0-.8.512l1.098 1.712-1.114-.003-.906-1.412a.476.476 0 0 0-.8.511l.574.897-1.205-.004H5.73a.475.475 0 1 0 0 .95l1.208.003-.58.893a.474.474 0 1 0 .797.517l.914-1.406 1.115.003-1.109 1.706a.474.474 0 1 0 .798.517l1.443-2.22 1.56.005-1.784 2.393a.947.947 0 0 0-.182.667L7.8 23.991l-3.813-1.928a.475.475 0 1 0-.43.847l3.266 1.65-2.044 1.195-2.463-1.245a.475.475 0 0 0-.43.846l1.916.97-1.867 1.09-1.227-.617a.475.475 0 1 0-.43.846l.678.342-.714.418a.475.475 0 1 0 .481.82l.707-.414-.033.758a.475.475 0 0 0 .454.495h.021c.253 0 .464-.199.475-.454l.06-1.368 1.865-1.09-.092 2.141a.475.475 0 0 0 .95.041l.12-2.753 2.044-1.194-.158 3.65a.475.475 0 0 0 .454.496h.021c.253 0 .463-.2.475-.454l.184-4.262 2.21-1.291a.942.942 0 0 0 .482.077l2.85-.332-.74 1.271-2.647.121a.475.475 0 0 0 .02.95l.023-.001 2.035-.093-.56.962-1.678.077a.475.475 0 0 0 .021.949h.023l1.065-.05-.606 1.04a.474.474 0 1 0 .822.477l.608-1.044.485.948a.475.475 0 0 0 .847-.431l-.763-1.494.56-.962.925 1.812a.475.475 0 0 0 .848-.431l-1.204-2.358.787-1.35 1.2 2.776a.947.947 0 0 0 .402.446v2.512l-3.592 2.312a.474.474 0 1 0 .514.798l3.078-1.981v2.364l-2.32 1.494a.474.474 0 1 0 .515.798l1.805-1.162v2.159l-1.153.742a.474.474 0 1 0 .515.798l.638-.41v.825a.475.475 0 0 0 .951 0v-.818l.638.41a.475.475 0 1 0 .515-.798l-1.152-.743v-2.158l1.805 1.162a.474.474 0 1 0 .515-.798l-2.32-1.494v-2.364l3.076 1.98a.474.474 0 0 0 .657-.141.474.474 0 0 0-.142-.656l-3.591-2.312V26.88a.946.946 0 0 0 .393-.442l1.168-2.701.743 1.276-1.203 2.357a.474.474 0 0 0 .423.691c.173 0 .34-.095.424-.26l.925-1.811.561.962-.762 1.493a.474.474 0 0 0 .423.69c.173 0 .34-.094.424-.259l.484-.948.608 1.044a.475.475 0 0 0 .822-.477l-.605-1.04 1.066.05h.022a.475.475 0 0 0 .021-.949l-1.677-.076-.561-.963 2.035.093h.022a.475.475 0 0 0 .021-.948l-2.647-.121-.745-1.28 2.931.341a.933.933 0 0 0 .54-.102l2.253 1.315.188 4.262a.476.476 0 0 0 .475.455h.022a.475.475 0 0 0 .454-.496l-.16-3.651 2.044 1.193.122 2.754a.475.475 0 0 0 .474.454h.022a.475.475 0 0 0 .454-.496l-.094-2.142 1.864 1.089.06 1.369a.476.476 0 0 0 .474.454h.022a.475.475 0 0 0 .454-.496l-.033-.757.615.359a.475.475 0 1 0 .479-.82zm-11.884-5.834-.144-.017-2.231-.26-.582-.068-1.123 2.597-.081.188-.48 1.111-.472-1.09-1.213-2.806-.663.077-3.558.414 2.02-2.71.518-.693-.375-.502-1.238-1.662-.255-.342-.67-.898 4.222.492.221-.51.991-2.296.471-1.09.48 1.112.081.188 1.123 2.597.543-.063 2.271-.265 1.407-.164-2.021 2.71-.16.215-.04.053-.316.426 1.613 2.163.924 1.24-1.263-.147z" fill="#fff"/>
    <path d="M16.718 17.61a1.623 1.623 0 1 0 0 3.243c.897 0 1.624-.726 1.624-1.621 0-.896-.727-1.622-1.624-1.622z" fill="#fff"/>
</svg>
