<svg width="58" height="58" viewBox="0 0 58 58" fill="none" xmlns="http://www.w3.org/2000/svg">
    <mask id="h98s5p68ub" style="mask-type:alpha" maskUnits="userSpaceOnUse" x="4" y="0" width="50" height="50">
        <rect x="4" width="50" height="50" rx="10" fill="#D9D9D9"/>
    </mask>
    <g mask="url(#h98s5p68ub)" fill="#fff">
        <path d="M13.99 6.836c0 4.035-3.533 7.302-7.886 7.302-4.358 0-7.887-3.271-7.887-7.302 0-4.032 3.529-7.303 7.887-7.303s7.886 3.271 7.886 7.303zM36.665 6.836c0 4.035-3.312 7.302-7.394 7.302-4.086 0-7.394-3.271-7.394-7.302 0-4.036 3.312-7.303 7.394-7.303 4.082 0 7.394 3.271 7.394 7.303zM59.34 6.836c0 4.035-3.313 7.302-7.394 7.302-4.086 0-7.394-3.271-7.394-7.302 0-4.036 3.312-7.303 7.394-7.303 4.081 0 7.393 3.271 7.393 7.303zM25.82 24.18c0 4.035-3.532 7.302-7.886 7.302-4.358 0-7.887-3.271-7.887-7.303 0-4.035 3.533-7.302 7.887-7.302 4.354 0 7.886 3.27 7.886 7.302zM48.495 24.18c0 4.035-3.533 7.302-7.887 7.302-4.358 0-7.886-3.271-7.886-7.303 0-4.035 3.532-7.302 7.886-7.302 4.359 0 7.887 3.27 7.887 7.302zM13.99 41.98c0 3.783-3.533 6.846-7.886 6.846-4.358 0-7.887-3.067-7.887-6.847 0-3.783 3.533-6.846 7.887-6.846 4.358 0 7.886 3.067 7.886 6.846zM36.665 41.98c0 3.783-3.312 6.846-7.394 6.846-4.086 0-7.394-3.067-7.394-6.847 0-3.783 3.312-6.846 7.394-6.846 4.082 0 7.394 3.067 7.394 6.846zM59.34 41.98c0 3.783-3.313 6.846-7.394 6.846-4.086 0-7.394-3.067-7.394-6.847 0-3.783 3.312-6.846 7.394-6.846 4.081 0 7.393 3.067 7.393 6.846z"/>
    </g>
    <defs>
        <filter id="okwfo1z9ua" x="0" y="0" width="58" height="58" filterUnits="userSpaceOnUse" color-interpolation-filters="sRGB">
            <feFlood flood-opacity="0" result="BackgroundImageFix"/>
            <feColorMatrix in="SourceAlpha" values="0 0 0 0 0 0 0 0 0 0 0 0 0 0 0 0 0 0 127 0" result="hardAlpha"/>
            <feOffset dy="4"/>
            <feGaussianBlur stdDeviation="2"/>
            <feComposite in2="hardAlpha" operator="out"/>
            <feColorMatrix values="0 0 0 0 0 0 0 0 0 0 0 0 0 0 0 0 0 0 0.12 0"/>
            <feBlend in2="BackgroundImageFix" result="effect1_dropShadow_235_6643"/>
            <feBlend in="SourceGraphic" in2="effect1_dropShadow_235_6643" result="shape"/>
        </filter>
    </defs>
</svg>
