<svg width="22" height="22" viewBox="0 0 22 22" fill="none" xmlns="http://www.w3.org/2000/svg">
    <path d="M16 1H6a5 5 0 0 0-5 5v10a5 5 0 0 0 5 5h10a5 5 0 0 0 5-5V6a5 5 0 0 0-5-5z" stroke="#001689" stroke-miterlimit="10" stroke-linejoin="round"/>
    <path d="M10.273 13.533h1.47v-1.275c0-1.309 2.857-.935 2.857-3.978C14.6 6.14 12.946 5 10.925 5 8.82 5 7.4 6.326 7.4 8.57h1.52c0-1.343.668-2.108 2.055-2.108 1.27 0 2.105.56 2.105 1.784 0 2.091-2.807 1.31-2.807 3.995v1.292zM10.04 17h1.97v-2.09h-1.97V17z" fill="#001689"/>
</svg>
