<svg width="27" height="27" viewBox="0 0 27 27" fill="none" xmlns="http://www.w3.org/2000/svg">
    <path d="M21 1H6a5 5 0 0 0-5 5v15a5 5 0 0 0 5 5h15a5 5 0 0 0 5-5V6a5 5 0 0 0-5-5z" stroke="#001689" stroke-miterlimit="10" stroke-linejoin="round"/>
    <path d="M12.592 16.666h1.837v-1.594c0-1.636 3.571-1.168 3.571-4.971C18 7.424 15.933 6 13.406 6 10.775 6 9 7.657 9 10.462h1.9c0-1.679.835-2.635 2.569-2.635 1.587 0 2.63.701 2.63 2.231 0 2.613-3.507 1.636-3.507 4.993v1.615zM12.299 21h2.464v-2.613H12.3V21z" fill="#001689"/>
</svg>
