<svg width="46" height="40" viewBox="0 0 46 40" fill="none" xmlns="http://www.w3.org/2000/svg">
    <path d="M19.798 5.483c1.407-2.437 4.925-2.437 6.332 0l16.632 28.809c1.407 2.436-.351 5.483-3.165 5.483H6.33c-2.814 0-4.572-3.047-3.165-5.483L19.798 5.482z" fill="#FFC738"/>
    <path fill-rule="evenodd" clip-rule="evenodd" d="M41.496 35.023 24.863 6.214c-.844-1.462-2.954-1.462-3.798 0L4.432 35.023c-.844 1.462.211 3.29 1.9 3.29h33.265c1.688 0 2.743-1.828 1.9-3.29zM26.13 5.483c-1.407-2.437-4.925-2.437-6.332 0L3.166 34.292c-1.407 2.436.351 5.483 3.165 5.483h33.266c2.814 0 4.572-3.047 3.165-5.483L26.13 5.482z" fill="#000"/>
    <path d="M21.942 27.384h2.575l.4-12.05h-3.35l.375 12.05zm-.5 5.374h3.575v-3.4h-3.575v3.4z" fill="#000"/>
    <path fill-rule="evenodd" clip-rule="evenodd" d="M21.942 27.53a.146.146 0 0 1-.146-.142l-.375-12.05a.146.146 0 0 1 .146-.151h3.35a.146.146 0 0 1 .146.151l-.4 12.05a.146.146 0 0 1-.146.141h-2.575zm-.5 5.374a.146.146 0 0 1-.147-.146v-3.4c0-.08.066-.146.147-.146h3.575c.08 0 .146.066.146.146v3.4c0 .081-.066.146-.146.146h-3.575zm3.475-17.57-.4 12.05h-2.575l-.375-12.05h3.35zm.1 17.424h-3.575v-3.4h3.575v3.4z" fill="#000"/>
</svg>
